<svg width="97" height="16" viewBox="0 0 97 16" fill="none" xmlns="http://www.w3.org/2000/svg">
<path d="M13.9912 12.4199H6.94393L5.59953 15.7348H2L8.76537 0.265193H12.2348L19.0219 15.7348H15.3356L13.9912 12.4199ZM12.8853 9.70166L10.4784 3.77901L8.07149 9.70166H12.8853Z" fill="#5F1E00"/>
<path d="M27.1669 0.265193C28.5113 0.265193 29.675 0.493554 30.658 0.950276C31.6554 1.407 32.4216 2.05525 32.9565 2.89503C33.4913 3.73481 33.7588 4.72928 33.7588 5.87845C33.7588 7.01289 33.4913 8.00737 32.9565 8.86188C32.4216 9.70166 31.6554 10.3499 30.658 10.8066C29.675 11.2486 28.5113 11.4696 27.1669 11.4696H24.1094V15.7348H20.5966V0.265193H27.1669ZM26.9717 8.55249C28.027 8.55249 28.8293 8.32413 29.3786 7.8674C29.9279 7.39595 30.2026 6.73297 30.2026 5.87845C30.2026 5.00921 29.9279 4.34623 29.3786 3.8895C28.8293 3.41805 28.027 3.18232 26.9717 3.18232H24.1094V8.55249H26.9717Z" fill="#5F1E00"/>
<path d="M42.8369 0.265193C44.1813 0.265193 45.345 0.493554 46.328 0.950276C47.3254 1.407 48.0916 2.05525 48.6265 2.89503C49.1613 3.73481 49.4288 4.72928 49.4288 5.87845C49.4288 7.01289 49.1613 8.00737 48.6265 8.86188C48.0916 9.70166 47.3254 10.3499 46.328 10.8066C45.345 11.2486 44.1813 11.4696 42.8369 11.4696H39.7794V15.7348H36.2666V0.265193H42.8369ZM42.6417 8.55249C43.697 8.55249 44.4993 8.32413 45.0486 7.8674C45.5979 7.39595 45.8726 6.73297 45.8726 5.87845C45.8726 5.00921 45.5979 4.34623 45.0486 3.8895C44.4993 3.41805 43.697 3.18232 42.6417 3.18232H39.7794V8.55249H42.6417Z" fill="#5F1E00"/>
<path d="M55.4494 3.13812V7.22652H62.475V10.0994H55.4494V15.7348H51.9366V0.265193H63.4074V3.13812H55.4494Z" fill="#5F1E00"/>
<path d="M72.9881 16C71.4124 16 69.9885 15.6538 68.7164 14.9613C67.4587 14.2689 66.4685 13.3186 65.7457 12.1105C65.0374 10.8877 64.6832 9.5175 64.6832 8C64.6832 6.4825 65.0374 5.11971 65.7457 3.9116C66.4685 2.68877 67.4587 1.73112 68.7164 1.03867C69.9885 0.346225 71.4124 0 72.9881 0C74.5638 0 75.9805 0.346225 77.2382 1.03867C78.4959 1.73112 79.4861 2.68877 80.2089 3.9116C80.9317 5.11971 81.2931 6.4825 81.2931 8C81.2931 9.5175 80.9317 10.8877 80.2089 12.1105C79.4861 13.3186 78.4959 14.2689 77.2382 14.9613C75.9805 15.6538 74.5638 16 72.9881 16ZM72.9881 12.9503C73.8844 12.9503 74.6939 12.744 75.4167 12.3315C76.1395 11.9042 76.7033 11.3149 77.1081 10.5635C77.5273 9.81215 77.7369 8.95764 77.7369 8C77.7369 7.04236 77.5273 6.18785 77.1081 5.43646C76.7033 4.68508 76.1395 4.10313 75.4167 3.69061C74.6939 3.26335 73.8844 3.04972 72.9881 3.04972C72.0919 3.04972 71.2823 3.26335 70.5595 3.69061C69.8368 4.10313 69.2657 4.68508 68.8465 5.43646C68.4418 6.18785 68.2394 7.04236 68.2394 8C68.2394 8.95764 68.4418 9.81215 68.8465 10.5635C69.2657 11.3149 69.8368 11.9042 70.5595 12.3315C71.2823 12.744 72.0919 12.9503 72.9881 12.9503Z" fill="#5F1E00"/>
<path d="M92.9451 15.7348L89.2805 10.3646L85.681 15.7348H81.6478L87.2639 7.8674L81.9297 0.265193H85.9195L89.4106 5.28177L92.8367 0.265193H96.6314L91.3405 7.73481L97 15.7348H92.9451Z" fill="#5F1E00"/>
<path d="M11.9912 12.4199H4.94393L3.59953 15.7348H0L6.76537 0.265193H10.2348L17.0219 15.7348H13.3356L11.9912 12.4199ZM10.8853 9.70166L8.4784 3.77901L6.07149 9.70166H10.8853Z" fill="white"/>
<path d="M25.1669 0.265193C26.5113 0.265193 27.675 0.493554 28.658 0.950276C29.6554 1.407 30.4216 2.05525 30.9565 2.89503C31.4913 3.73481 31.7588 4.72928 31.7588 5.87845C31.7588 7.01289 31.4913 8.00737 30.9565 8.86188C30.4216 9.70166 29.6554 10.3499 28.658 10.8066C27.675 11.2486 26.5113 11.4696 25.1669 11.4696H22.1094V15.7348H18.5966V0.265193H25.1669ZM24.9717 8.55249C26.027 8.55249 26.8293 8.32413 27.3786 7.8674C27.9279 7.39595 28.2026 6.73297 28.2026 5.87845C28.2026 5.00921 27.9279 4.34622 27.3786 3.8895C26.8293 3.41805 26.027 3.18232 24.9717 3.18232H22.1094V8.55249H24.9717Z" fill="white"/>
<path d="M40.8369 0.265193C42.1813 0.265193 43.345 0.493554 44.328 0.950276C45.3254 1.407 46.0916 2.05525 46.6265 2.89503C47.1613 3.73481 47.4288 4.72928 47.4288 5.87845C47.4288 7.01289 47.1613 8.00737 46.6265 8.86188C46.0916 9.70166 45.3254 10.3499 44.328 10.8066C43.345 11.2486 42.1813 11.4696 40.8369 11.4696H37.7794V15.7348H34.2666V0.265193H40.8369ZM40.6417 8.55249C41.697 8.55249 42.4993 8.32413 43.0486 7.8674C43.5979 7.39595 43.8726 6.73297 43.8726 5.87845C43.8726 5.00921 43.5979 4.34622 43.0486 3.8895C42.4993 3.41805 41.697 3.18232 40.6417 3.18232H37.7794V8.55249H40.6417Z" fill="white"/>
<path d="M53.4494 3.13812V7.22652H60.475V10.0994H53.4494V15.7348H49.9366V0.265193H61.4074V3.13812H53.4494Z" fill="white"/>
<path d="M70.9881 16C69.4124 16 67.9885 15.6538 66.7164 14.9613C65.4587 14.2689 64.4685 13.3186 63.7457 12.1105C63.0374 10.8877 62.6832 9.5175 62.6832 8C62.6832 6.4825 63.0374 5.11971 63.7457 3.9116C64.4685 2.68877 65.4587 1.73112 66.7164 1.03867C67.9885 0.346225 69.4124 0 70.9881 0C72.5638 0 73.9805 0.346225 75.2382 1.03867C76.4959 1.73112 77.4861 2.68877 78.2089 3.9116C78.9317 5.11971 79.2931 6.4825 79.2931 8C79.2931 9.5175 78.9317 10.8877 78.2089 12.1105C77.4861 13.3186 76.4959 14.2689 75.2382 14.9613C73.9805 15.6538 72.5638 16 70.9881 16ZM70.9881 12.9503C71.8844 12.9503 72.6939 12.744 73.4167 12.3315C74.1395 11.9042 74.7033 11.3149 75.1081 10.5635C75.5273 9.81216 75.7369 8.95764 75.7369 8C75.7369 7.04236 75.5273 6.18785 75.1081 5.43646C74.7033 4.68508 74.1395 4.10313 73.4167 3.69061C72.6939 3.26335 71.8844 3.04972 70.9881 3.04972C70.0919 3.04972 69.2823 3.26335 68.5595 3.69061C67.8368 4.10313 67.2657 4.68508 66.8465 5.43646C66.4418 6.18785 66.2394 7.04236 66.2394 8C66.2394 8.95764 66.4418 9.81216 66.8465 10.5635C67.2657 11.3149 67.8368 11.9042 68.5595 12.3315C69.2823 12.744 70.0919 12.9503 70.9881 12.9503Z" fill="white"/>
<path d="M90.9451 15.7348L87.2805 10.3646L83.681 15.7348H79.6478L85.2639 7.8674L79.9297 0.265193H83.9195L87.4106 5.28177L90.8367 0.265193H94.6314L89.3405 7.73481L95 15.7348H90.9451Z" fill="white"/>
</svg>
