<svg width="26" height="26" viewBox="0 0 26 26" fill="none" xmlns="http://www.w3.org/2000/svg">
<path d="M12.9167 25.8333H19.375V23.25H12.9167C7.31083 23.25 2.58333 18.5225 2.58333 12.9167C2.58333 7.31083 7.31083 2.58333 12.9167 2.58333C18.5225 2.58333 23.25 7.31083 23.25 12.9167V14.7638C23.25 15.7842 22.3329 16.7917 21.3125 16.7917C20.2921 16.7917 19.375 15.7842 19.375 14.7638V12.9167C19.375 9.35167 16.4817 6.45833 12.9167 6.45833C9.35167 6.45833 6.45833 9.35167 6.45833 12.9167C6.45833 16.4817 9.35167 19.375 12.9167 19.375C14.6992 19.375 16.3267 18.6517 17.4892 17.4763C18.3288 18.6258 19.7754 19.375 21.3125 19.375C23.8571 19.375 25.8333 17.3083 25.8333 14.7638V12.9167C25.8333 5.78667 20.0467 0 12.9167 0C5.78667 0 0 5.78667 0 12.9167C0 20.0467 5.78667 25.8333 12.9167 25.8333ZM12.9167 16.7917C10.7725 16.7917 9.04167 15.0608 9.04167 12.9167C9.04167 10.7725 10.7725 9.04167 12.9167 9.04167C15.0608 9.04167 16.7917 10.7725 16.7917 12.9167C16.7917 15.0608 15.0608 16.7917 12.9167 16.7917Z" fill="white"/>
</svg>
