<svg width="69" height="69" viewBox="0 0 69 69" fill="none" xmlns="http://www.w3.org/2000/svg">
<circle cx="34.5" cy="34.5" r="32.5" stroke="white" stroke-width="4"/>
<path d="M21.9154 18.0874L14.7379 29.9303M21.9154 18.0874H34.7452M21.9154 18.0874L26.0681 29.9303M47.5751 18.0874L54.932 29.9303M47.5751 18.0874H34.7452M47.5751 18.0874L43.48 29.9303M34.8349 54.9321L54.932 29.9303M34.8349 54.9321L14.7379 29.9303M34.8349 54.9321L26.0681 29.9303M34.8349 54.9321L43.48 29.9303M14.7379 29.9303H26.0681M54.932 29.9303H43.48M34.7452 18.0874L26.0681 29.9303M34.7452 18.0874L43.48 29.9303M26.0681 29.9303H43.48" stroke="white" stroke-width="2.5" stroke-linejoin="round"/>
</svg>
