<svg width="69" height="69" viewBox="0 0 69 69" fill="none" xmlns="http://www.w3.org/2000/svg">
<path d="M37.255 31.0248C35.865 30.6773 33.4324 28.9397 33.4324 28.9397C33.4324 28.9397 32.1414 27.8282 32.0423 26.8546C31.9387 25.8368 32.3332 25.1454 33.0849 24.4514C34.006 23.6008 34.9592 23.695 36.2125 23.727C38.336 23.7812 40.0351 24.7696 41.0777 26.1596L44.2053 21.9895C43.1627 20.9469 42.1202 20.2519 41.0777 19.5569C40.0351 18.8619 38.6451 18.5143 37.255 18.5143V13.6492H33.0849V18.5143C31.3473 18.8619 29.6098 19.9044 28.2197 21.2944C26.8297 23.032 25.7871 25.1171 26.1346 27.2021C26.1346 29.2872 26.8297 31.3723 28.2197 32.7623C29.9573 34.4999 32.3131 35.1546 34.835 36.5096C36.1716 37.2278 36.9954 37.1432 37.95 38.3225C38.6796 39.2238 38.9497 39.9439 38.9926 41.1026C39.0402 42.3892 38.8054 43.268 37.95 44.2302C36.979 45.3227 35.5175 45.6203 34.4749 45.6203C33.0849 45.6203 31.3473 45.2728 30.3048 44.2302C29.2622 43.5352 28.2197 42.4927 27.5247 41.4501L24.0496 45.2728C25.0921 46.6628 26.1346 47.7054 27.5247 48.7479C29.2622 49.7904 31.3473 50.833 33.4324 50.833V55.3506H37.255V50.1379C39.3401 49.7904 41.0777 48.7479 42.4677 47.3578C44.2053 45.6203 45.2478 42.8402 45.2478 40.4076C45.2478 38.3225 44.5528 35.8899 42.8152 34.4999C41.0777 32.7623 39.3401 31.7198 37.255 31.0248Z" fill="white"/>
<circle cx="34.5" cy="34.5" r="32.5" stroke="white" stroke-width="4"/>
</svg>
